# xmcd CD database file
#
# Track frame offsets:
#	150
#	20560
#	40375
#	61967
#	80980
#	96455
#	125355
#	150627
#	171347
#
# Disc length: 2606 seconds
#
# Revision: 0
# Processed by: cddbd v1.5PL3 Copyright (c) Steve Scherf et al.
# Submitted via: CDex 1.50beta8
#
DISCID=7a0a2c09
DTITLE=artport - アートポート
DYEAR=1900
DGENRE=Rock
TTITLE0=ラップ
TTITLE1=ロシアンレゲエ
TTITLE2=ロンドンタウン
TTITLE3=ブロークンデイズ
TTITLE4=クレブリアント(親愛なる鍵)
TTITLE5=オーマイチベット
TTITLE6=ハロー
TTITLE7=チロリアンクロック(at鹿鳴館)
TTITLE8=エクスタシー(at鹿鳴館)
EXTD=
EXTT0=
EXTT1=
EXTT2=
EXTT3=
EXTT4=
EXTT5=
EXTT6=
EXTT7=
EXTT8=
PLAYORDER=
